<svg width="20" height="19" viewBox="0 0 20 19" fill="none" xmlns="http://www.w3.org/2000/svg">
<path fill-rule="evenodd" clip-rule="evenodd" d="M9.58403 0.375962C9.83596 0.208013 10.1642 0.208013 10.4161 0.375962L19.4161 6.37596C19.6247 6.51506 19.7501 6.74924 19.7501 7V16.75C19.7501 17.1478 19.592 17.5294 19.3107 17.8107C19.0294 18.092 18.6479 18.25 18.2501 18.25H1.75006C1.35224 18.25 0.970704 18.092 0.689399 17.8107C0.408094 17.5294 0.250059 17.1478 0.250059 16.75V7C0.250059 6.74924 0.375385 6.51506 0.584034 6.37596L9.58403 0.375962ZM1.75006 7.40139V16.75H18.2501V7.40139L10.0001 1.90139L1.75006 7.40139Z" fill="#F26CF9"/>
<path fill-rule="evenodd" clip-rule="evenodd" d="M8.97196 11.8172C9.21099 12.1555 9.13052 12.6235 8.79223 12.8625L1.66723 17.8969C1.32894 18.1359 0.860936 18.0555 0.621909 17.7172C0.382882 17.3789 0.463348 16.9109 0.801637 16.6718L7.92664 11.6375C8.26493 11.3984 8.73293 11.4789 8.97196 11.8172Z" fill="#F26CF9"/>
<path fill-rule="evenodd" clip-rule="evenodd" d="M11.0282 11.8172C11.2672 11.4789 11.7352 11.3984 12.0735 11.6375L19.1985 16.6718C19.5368 16.9109 19.6172 17.3789 19.3782 17.7172C19.1392 18.0555 18.6712 18.1359 18.3329 17.8969L11.2079 12.8625C10.8696 12.6235 10.7891 12.1555 11.0282 11.8172Z" fill="#F26CF9"/>
<path fill-rule="evenodd" clip-rule="evenodd" d="M0.389496 6.56444C0.630049 6.22723 1.09841 6.14888 1.43562 6.38944L8.59953 11.5H11.4006L18.5645 6.38944C18.9017 6.14888 19.3701 6.22723 19.6106 6.56444C19.8512 6.90164 19.7728 7.37001 19.4356 7.61056L12.0762 12.8606C11.9491 12.9513 11.7968 13 11.6407 13H8.35943C8.20327 13 8.051 12.9513 7.92387 12.8606L0.564498 7.61056C0.227293 7.37001 0.148942 6.90164 0.389496 6.56444Z" fill="#F26CF9"/>
</svg>
